<svg width="144" height="56" viewBox="0 0 144 56" fill="none" xmlns="http://www.w3.org/2000/svg">
<path d="M80.5477 22.9914C81.698 22.9658 82.8191 23.3545 83.7064 24.0868C84.6059 24.7989 85.0557 26.1567 85.0557 28.1601V36.666H82.4593V28.5928C82.4593 27.6763 82.2554 26.9295 81.8477 26.3526C81.6721 26.0737 81.4273 25.8451 81.1371 25.689C80.8468 25.5328 80.5211 25.4545 80.1917 25.4616C79.5806 25.4616 79.0036 25.7416 78.4607 26.3015C77.9178 26.8614 77.5771 27.7103 77.4385 28.8483V36.666H74.7126V28.5928C74.7126 27.5911 74.5172 26.8188 74.1265 26.2759C73.9415 26.0121 73.6929 25.7991 73.4038 25.6568C73.1146 25.5144 72.7942 25.4473 72.4723 25.4616C72.0431 25.4758 71.6279 25.6175 71.2797 25.8688C70.828 26.1746 70.4672 26.5966 70.2353 27.0902C69.92 27.7349 69.7381 28.4366 69.7003 29.1533V36.666H67V23.3219H69.6986V24.8245C70.0163 24.2356 70.5044 23.7564 71.0991 23.4497C71.6313 23.1598 72.2257 23.0026 72.8317 22.9914C74.7842 22.9914 76.117 23.7467 76.8303 25.2572C77.2714 24.6135 77.8234 24.0534 78.4607 23.603C79.0761 23.1875 79.8055 22.9738 80.5477 22.9914Z" fill="white"/>
<path d="M89.9709 30.678C90.0901 31.833 90.4553 32.7836 91.0663 33.5298C91.6774 34.276 92.5599 34.6496 93.7139 34.6507C94.5975 34.6507 95.2853 34.4724 95.7771 34.1158C96.2689 33.7592 96.7101 33.1493 97.1008 32.2862L99.6564 33.1005C99.2478 34.2175 98.5225 35.1913 97.5693 35.9029C96.6016 36.632 95.3193 36.9966 93.7224 36.9966C92.0766 36.9966 90.7779 36.615 89.8261 35.8518C88.9228 35.1354 88.2353 34.1832 87.8396 33.1005C87.4922 32.1019 87.3087 31.0537 87.2961 29.9966C87.3046 28.947 87.4853 27.9059 87.831 26.9148C88.218 25.8274 88.9071 24.873 89.8175 24.1635C90.7682 23.3833 92.067 22.9932 93.7139 22.9932C95.3608 22.9932 96.6601 23.3827 97.6119 24.1618C98.5324 24.8615 99.2239 25.8192 99.5984 26.9131C99.9597 27.9014 100.149 28.9443 100.157 29.9966C100.157 30.2845 100.149 30.5076 100.132 30.678H89.9709ZM93.719 25.3305C92.6968 25.3305 91.8818 25.6275 91.2742 26.2214C90.6585 26.8581 90.2504 27.6666 90.1038 28.54H97.3615C97.2141 27.6622 96.7973 26.8519 96.1689 26.2214C95.5692 25.6297 94.7509 25.3339 93.7139 25.3339L93.719 25.3305Z" fill="white"/>
<path d="M104.786 25.6132C105.873 23.9505 107.41 23.1191 109.396 23.1191V25.9709C109.194 25.9423 108.989 25.9252 108.785 25.9198C108.179 25.9261 107.581 26.056 107.027 26.3014C106.453 26.5545 105.94 26.9281 105.524 27.3968C105.117 27.8721 104.786 29.0016 104.786 29.0016V36.6677H102.06V23.3219H104.786V25.6132Z" fill="white"/>
<path d="M123.215 32.465C122.863 33.7243 122.145 34.8507 121.152 35.7018C120.15 36.5673 118.758 37 116.976 37C115.272 37 113.931 36.6184 112.952 35.8552C112.022 35.1522 111.312 34.1975 110.907 33.1039C110.549 32.1067 110.362 31.0561 110.354 29.9966C110.363 28.9448 110.553 27.9025 110.914 26.9148C111.31 25.8164 112.021 24.8593 112.959 24.1635C113.943 23.3833 115.285 22.9932 116.983 22.9932C118.765 22.9932 120.157 23.4259 121.159 24.2913C122.151 25.1423 122.869 26.2688 123.222 27.5281L120.879 28.4191C120.676 27.5619 120.213 26.7884 119.554 26.2044C118.91 25.6275 118.053 25.339 116.983 25.339C115.606 25.339 114.587 25.7887 113.926 26.6882C113.265 27.5877 112.932 28.6905 112.926 29.9966C112.926 31.3026 113.257 32.406 113.92 33.3066C114.582 34.2072 115.601 34.657 116.976 34.6559C118.044 34.6559 118.901 34.3759 119.547 33.816C120.204 33.2191 120.666 32.4377 120.872 31.5741L123.215 32.465Z" fill="white"/>
<path d="M127.851 36.6661H125.125V18H127.851V36.6661Z" fill="white"/>
<path d="M132.952 30.678C133.071 31.833 133.436 32.7836 134.047 33.5298C134.658 34.276 135.541 34.6496 136.695 34.6507C137.579 34.6507 138.267 34.4724 138.758 34.1158C139.248 33.7592 139.69 33.1482 140.083 32.2828L142.629 33.0971C142.221 34.2149 141.497 35.19 140.545 35.9029C139.577 36.632 138.295 36.9966 136.698 36.9966C135.052 36.9966 133.753 36.615 132.802 35.8518C131.898 35.1359 131.21 34.1835 130.815 33.1005C130.47 32.1016 130.288 31.0535 130.277 29.9966C130.285 28.947 130.466 27.9059 130.812 26.9148C131.198 25.8271 131.887 24.8725 132.798 24.1635C133.749 23.3833 135.048 22.9932 136.695 22.9932C138.342 22.9932 139.641 23.3833 140.593 24.1635C141.513 24.8632 142.205 25.8209 142.579 26.9148C142.94 27.9026 143.129 28.9449 143.138 29.9966C143.138 30.2845 143.129 30.5076 143.112 30.678H132.952ZM136.7 25.3305C135.677 25.3305 134.863 25.6275 134.255 26.2214C133.639 26.8577 133.23 27.6663 133.084 28.54H140.342C140.195 27.6622 139.778 26.8519 139.15 26.2214C138.55 25.6297 137.732 25.3339 136.695 25.3339L136.7 25.3305Z" fill="white"/>
<path d="M22.3191 0.349634C22.3202 0.256524 22.3577 0.167605 22.4235 0.102153C22.4893 0.0367005 22.5781 -6.44341e-06 22.6707 8.48428e-10H24.3252C24.4177 -6.44341e-06 24.5065 0.0367005 24.5723 0.102153C24.6381 0.167605 24.6757 0.256524 24.6767 0.349634V1.98126C24.6767 2.07509 24.6397 2.16509 24.5738 2.23144C24.5078 2.29779 24.4184 2.33506 24.3252 2.33506H22.6707C22.5774 2.33506 22.488 2.29779 22.4221 2.23144C22.3561 2.16509 22.3191 2.07509 22.3191 1.98126V0.349634Z" fill="white"/>
<path d="M30.3062 4.66602C30.2137 4.66601 30.1249 4.70272 30.0591 4.76817C29.9933 4.83362 29.9557 4.92254 29.9547 5.01565V6.65144C29.9557 6.74455 29.9933 6.83348 30.0591 6.89894C30.1249 6.96439 30.2137 7.0011 30.3062 7.00109H31.9607C32.0533 7.0011 32.1421 6.96439 32.2079 6.89894C32.2737 6.83348 32.3112 6.74455 32.3123 6.65144V5.01565C32.3112 4.92254 32.2737 4.83362 32.2079 4.76817C32.1421 4.70272 32.0533 4.66601 31.9607 4.66602H30.3062Z" fill="white"/>
<path d="M37.59 9.68169C37.5906 9.63523 37.6002 9.58933 37.6184 9.54661C37.6365 9.5039 37.6629 9.4652 37.6959 9.43274C37.729 9.40027 37.768 9.37467 37.8109 9.3574C37.8537 9.34012 37.8996 9.33151 37.9457 9.33206H39.6002C39.6928 9.33205 39.7816 9.36876 39.8474 9.43421C39.9132 9.49966 39.9507 9.58858 39.9518 9.68169V11.3175C39.9507 11.4106 39.9132 11.4995 39.8474 11.565C39.7816 11.6304 39.6928 11.6671 39.6002 11.6671H37.9457C37.8996 11.6677 37.8537 11.6591 37.8109 11.6418C37.768 11.6245 37.729 11.5989 37.6959 11.5665C37.6629 11.534 37.6365 11.4953 37.6184 11.4526C37.6002 11.4099 37.5906 11.364 37.59 11.3175V9.68169Z" fill="white"/>
<path d="M0 14.3477C0.00108862 14.2546 0.03861 14.1657 0.104426 14.1002C0.170243 14.0348 0.259048 13.9981 0.35158 13.9981H2.00608C2.05225 13.9975 2.09807 14.0061 2.14094 14.0234C2.1838 14.0407 2.22287 14.0663 2.2559 14.0987C2.28893 14.1312 2.31528 14.1699 2.33345 14.2126C2.35162 14.2553 2.36125 14.3012 2.36179 14.3477V15.9835C2.36125 16.03 2.35162 16.0759 2.33345 16.1186C2.31528 16.1613 2.28893 16.2 2.2559 16.2325C2.22287 16.2649 2.1838 16.2905 2.14094 16.3078C2.09807 16.3251 2.05225 16.3337 2.00608 16.3331H0.35158C0.259048 16.3331 0.170243 16.2964 0.104426 16.231C0.03861 16.1655 0.00108862 16.0766 0 15.9835V14.3477Z" fill="white"/>
<path d="M8.72468e-10 23.6837C-3.25726e-06 23.6375 0.00911886 23.5916 0.0268376 23.5489C0.0445564 23.5063 0.0705196 23.4675 0.103222 23.435C0.135925 23.4025 0.174716 23.3768 0.217349 23.3595C0.259981 23.3422 0.305606 23.3335 0.35158 23.3341H2.00608C2.05239 23.333 2.09846 23.3412 2.14158 23.3583C2.18469 23.3753 2.22398 23.4009 2.25712 23.4335C2.29027 23.4661 2.3166 23.505 2.33458 23.548C2.35255 23.5909 2.3618 23.6371 2.36179 23.6837V25.3154C2.3618 25.362 2.35255 25.4081 2.33458 25.4511C2.3166 25.4941 2.29027 25.533 2.25712 25.5656C2.22398 25.5981 2.18469 25.6237 2.14158 25.6408C2.09846 25.6579 2.05239 25.6661 2.00608 25.665H0.35158C0.305606 25.6655 0.259981 25.6569 0.217349 25.6396C0.174716 25.6222 0.135925 25.5966 0.103222 25.5641C0.0705196 25.5315 0.0445564 25.4928 0.0268376 25.4501C0.00911886 25.4074 -3.25726e-06 25.3616 8.72468e-10 25.3154V23.6837Z" fill="white"/>
<path d="M0.35158 32.666C0.259048 32.666 0.170243 32.7027 0.104426 32.7682C0.03861 32.8336 0.00108862 32.9226 8.72468e-10 33.0157V34.6473C-3.25726e-06 34.6936 0.00911886 34.7394 0.0268376 34.7821C0.0445564 34.8248 0.0705196 34.8635 0.103222 34.896C0.135925 34.9285 0.174716 34.9542 0.217349 34.9715C0.259981 34.9889 0.305606 34.9975 0.35158 34.9969H2.00608C2.05239 34.9981 2.09846 34.9898 2.14158 34.9728C2.18469 34.9557 2.22398 34.9301 2.25712 34.8975C2.29027 34.865 2.3166 34.826 2.33458 34.7831C2.35255 34.7401 2.3618 34.6939 2.36179 34.6473V33.0157C2.36125 32.9692 2.35162 32.9233 2.33345 32.8806C2.31528 32.8379 2.28893 32.7992 2.2559 32.7667C2.22287 32.7343 2.1838 32.7087 2.14094 32.6914C2.09807 32.6741 2.05225 32.6655 2.00608 32.666H0.35158Z" fill="white"/>
<path d="M0 42.3477C0.00108862 42.2546 0.03861 42.1657 0.104426 42.1002C0.170243 42.0348 0.259048 41.9981 0.35158 41.9981H2.00608C2.05225 41.9975 2.09807 42.0061 2.14094 42.0234C2.1838 42.0407 2.22287 42.0663 2.2559 42.0988C2.28893 42.1312 2.31528 42.1699 2.33345 42.2126C2.35162 42.2553 2.36125 42.3012 2.36179 42.3477V43.9835C2.36125 44.03 2.35162 44.0759 2.33345 44.1186C2.31528 44.1613 2.28893 44.2 2.2559 44.2325C2.22287 44.2649 2.1838 44.2905 2.14094 44.3078C2.09807 44.3251 2.05225 44.3337 2.00608 44.3331H0.35158C0.259048 44.3331 0.170243 44.2964 0.104426 44.231C0.03861 44.1655 0.00108862 44.0766 0 43.9835V42.3477Z" fill="white"/>
<path d="M44.9939 13.998C44.901 13.998 44.8117 14.0346 44.7453 14.0999C44.6788 14.1653 44.6403 14.2542 44.6382 14.3477V15.9835C44.6403 16.077 44.6788 16.1659 44.7453 16.2312C44.8117 16.2966 44.901 16.3331 44.9939 16.3331H46.6484C46.7409 16.3331 46.8297 16.2964 46.8955 16.231C46.9614 16.1655 46.9989 16.0766 47 15.9835V14.3477C46.9989 14.2546 46.9614 14.1656 46.8955 14.1002C46.8297 14.0347 46.7409 13.998 46.6484 13.998H44.9939Z" fill="white"/>
<path d="M44.6382 23.6836C44.6387 23.6372 44.6484 23.5913 44.6665 23.5486C44.6847 23.5058 44.711 23.4672 44.7441 23.4347C44.7771 23.4022 44.8162 23.3766 44.859 23.3593C44.9019 23.3421 44.9477 23.3335 44.9939 23.334H46.6484C46.6944 23.3335 46.74 23.3421 46.7826 23.3594C46.8253 23.3767 46.8641 23.4024 46.8968 23.4349C46.9295 23.4675 46.9554 23.5062 46.9731 23.5489C46.9909 23.5916 47 23.6374 47 23.6836V25.3153C47 25.3615 46.9909 25.4073 46.9731 25.45C46.9554 25.4927 46.9295 25.5315 46.8968 25.564C46.8641 25.5965 46.8253 25.6222 46.7826 25.6395C46.74 25.6568 46.6944 25.6655 46.6484 25.6649H44.9939C44.9477 25.6655 44.9019 25.6568 44.859 25.6396C44.8162 25.6223 44.7771 25.5967 44.7441 25.5642C44.711 25.5318 44.6847 25.4931 44.6665 25.4504C44.6484 25.4076 44.6387 25.3617 44.6382 25.3153V23.6836Z" fill="white"/>
<path d="M44.9939 32.666C44.901 32.666 44.8117 32.7026 44.7453 32.7679C44.6788 32.8332 44.6403 32.9222 44.6382 33.0157V34.6473C44.6387 34.6938 44.6484 34.7396 44.6665 34.7824C44.6847 34.8251 44.711 34.8638 44.7441 34.8963C44.7771 34.9287 44.8162 34.9543 44.859 34.9716C44.9019 34.9889 44.9477 34.9975 44.9939 34.9969H46.6484C46.6944 34.9975 46.74 34.9888 46.7826 34.9715C46.8253 34.9542 46.8641 34.9285 46.8968 34.896C46.9295 34.8635 46.9554 34.8248 46.9731 34.7821C46.9909 34.7394 47 34.6936 47 34.6473V33.0157C46.9989 32.9226 46.9614 32.8336 46.8955 32.7682C46.8297 32.7027 46.7409 32.666 46.6484 32.666H44.9939Z" fill="white"/>
<path d="M44.6382 42.3477C44.6403 42.2542 44.6788 42.1653 44.7453 42.0999C44.8117 42.0346 44.901 41.998 44.9939 41.998H46.6484C46.7409 41.998 46.8297 42.0347 46.8955 42.1002C46.9614 42.1657 46.9989 42.2546 47 42.3477V43.9835C46.9989 44.0766 46.9614 44.1655 46.8955 44.231C46.8297 44.2964 46.7409 44.3331 46.6484 44.3331H44.9939C44.901 44.3331 44.8117 44.2966 44.7453 44.2312C44.6788 44.1659 44.6403 44.077 44.6382 43.9835V42.3477Z" fill="white"/>
<path d="M6.22515 44.333C6.17808 44.3335 6.13159 44.3436 6.08852 44.3627C6.04545 44.3818 6.00668 44.4095 5.97457 44.4442C5.94247 44.4788 5.91769 44.5197 5.90175 44.5642C5.88581 44.6088 5.87904 44.6562 5.88184 44.7035V46.3351C5.88184 46.3814 5.89096 46.4272 5.90868 46.4699C5.9264 46.5126 5.95236 46.5513 5.98506 46.5838C6.01777 46.6163 6.05656 46.642 6.09919 46.6593C6.14182 46.6766 6.18745 46.6853 6.23342 46.6847H7.88792C7.93389 46.6853 7.97952 46.6766 8.02215 46.6593C8.06478 46.642 8.10357 46.6163 8.13628 46.5838C8.16898 46.5513 8.19494 46.5126 8.21266 46.4699C8.23038 46.4272 8.2395 46.3814 8.2395 46.3351V44.7035C8.2395 44.6572 8.23038 44.6114 8.21266 44.5687C8.19494 44.526 8.16898 44.4873 8.13628 44.4547C8.10357 44.4222 8.06478 44.3966 8.02215 44.3792C7.97952 44.3619 7.93389 44.3533 7.88792 44.3538L6.22515 44.333Z" fill="white"/>
<path d="M13.3891 49.3487C13.3913 49.2552 13.4297 49.1663 13.4962 49.1009C13.5627 49.0356 13.6519 48.999 13.7449 48.999H15.3994C15.4923 48.999 15.5815 49.0356 15.648 49.1009C15.7145 49.1663 15.7529 49.2552 15.7551 49.3487V50.9803C15.7545 51.0267 15.7449 51.0727 15.7267 51.1154C15.7086 51.1581 15.6822 51.1968 15.6492 51.2293C15.6161 51.2617 15.5771 51.2873 15.5342 51.3046C15.4914 51.3219 15.4455 51.3305 15.3994 51.3299H13.7407C13.6946 51.3305 13.6487 51.3219 13.6059 51.3046C13.563 51.2873 13.5239 51.2617 13.4909 51.2293C13.4579 51.1968 13.4315 51.1581 13.4133 51.1154C13.3952 51.0727 13.3855 51.0267 13.385 50.9803L13.3891 49.3487Z" fill="white"/>
<path d="M22.6707 53.665C22.5781 53.665 22.4893 53.7017 22.4235 53.7672C22.3577 53.8326 22.3202 53.9216 22.3191 54.0147V55.6505C22.3202 55.7436 22.3577 55.8325 22.4235 55.898C22.4893 55.9634 22.5781 56.0001 22.6707 56.0001H24.3252C24.4177 56.0001 24.5065 55.9634 24.5723 55.898C24.6381 55.8325 24.6757 55.7436 24.6767 55.6505V54.0147C24.6757 53.9216 24.6381 53.8326 24.5723 53.7672C24.5065 53.7017 24.4177 53.665 24.3252 53.665H22.6707Z" fill="white"/>
<path d="M29.3672 50.5308C29.3683 50.4377 29.4059 50.3488 29.4717 50.2833C29.5375 50.2179 29.6263 50.1811 29.7188 50.1812H31.3733C31.4659 50.1811 31.5547 50.2179 31.6205 50.2833C31.6863 50.3488 31.7238 50.4377 31.7249 50.5308V52.1666C31.7238 52.2597 31.6863 52.3486 31.6205 52.4141C31.5547 52.4795 31.4659 52.5162 31.3733 52.5162H29.7188C29.6263 52.5162 29.5375 52.4795 29.4717 52.4141C29.4059 52.3486 29.3683 52.2597 29.3672 52.1666V50.5308Z" fill="white"/>
<path d="M36.767 45.4985C36.6745 45.4985 36.5857 45.5352 36.5199 45.6007C36.4541 45.6661 36.4166 45.7551 36.4155 45.8482V47.4798C36.4155 47.5736 36.4525 47.6636 36.5184 47.73C36.5844 47.7963 36.6738 47.8336 36.767 47.8336H38.4215C38.5148 47.8336 38.6042 47.7963 38.6701 47.73C38.7361 47.6636 38.7731 47.5736 38.7731 47.4798V45.8482C38.772 45.7551 38.7345 45.6661 38.6687 45.6007C38.6029 45.5352 38.5141 45.4985 38.4215 45.4985H36.767Z" fill="white"/>
<path d="M13.8606 4.66602C13.768 4.66601 13.6792 4.70272 13.6134 4.76817C13.5476 4.83362 13.5101 4.92254 13.509 5.01565V6.65144C13.5101 6.74455 13.5476 6.83348 13.6134 6.89894C13.6792 6.96439 13.768 7.0011 13.8606 7.00109H15.515C15.6076 7.0011 15.6964 6.96439 15.7622 6.89894C15.828 6.83348 15.8655 6.74455 15.8666 6.65144V5.01565C15.8655 4.92254 15.828 4.83362 15.7622 4.76817C15.6964 4.70272 15.6076 4.66601 15.515 4.66602H13.8606Z" fill="white"/>
<path d="M5.88159 9.68167C5.88268 9.58856 5.9202 9.49964 5.98602 9.43418C6.05184 9.36873 6.14064 9.33202 6.23317 9.33203H7.88767C7.9802 9.33202 8.069 9.36873 8.13482 9.43418C8.20064 9.49964 8.23816 9.58856 8.23925 9.68167V11.3175C8.23816 11.4106 8.20064 11.4995 8.13482 11.565C8.069 11.6304 7.9802 11.6671 7.88767 11.6671H6.23317C6.14064 11.6671 6.05184 11.6304 5.98602 11.565C5.9202 11.4995 5.88268 11.4106 5.88159 11.3175V9.68167Z" fill="white"/>
<path d="M22.6707 9.32373C22.5781 9.32372 22.4893 9.36043 22.4235 9.42588C22.3577 9.49134 22.3202 9.58025 22.3191 9.67336V11.3092C22.3202 11.4023 22.3577 11.4912 22.4235 11.5567C22.4893 11.6221 22.5781 11.6588 22.6707 11.6588H24.3252C24.4177 11.6588 24.5065 11.6221 24.5723 11.5567C24.6381 11.4912 24.6757 11.4023 24.6767 11.3092V9.67336C24.6757 9.58025 24.6381 9.49134 24.5723 9.42588C24.5065 9.36043 24.4177 9.32372 24.3252 9.32373H22.6707Z" fill="white"/>
<path d="M22.3191 36.5162C22.3191 36.4699 22.3282 36.4241 22.3459 36.3814C22.3636 36.3387 22.3896 36.3 22.4223 36.2674C22.455 36.2349 22.4938 36.2093 22.5364 36.1919C22.5791 36.1746 22.6247 36.166 22.6707 36.1665H24.3252C24.3711 36.166 24.4168 36.1746 24.4594 36.1919C24.502 36.2093 24.5408 36.2349 24.5735 36.2674C24.6062 36.3 24.6322 36.3387 24.6499 36.3814C24.6676 36.4241 24.6768 36.4699 24.6767 36.5162V38.1478C24.6768 38.1941 24.6676 38.2399 24.6499 38.2826C24.6322 38.3253 24.6062 38.364 24.5735 38.3965C24.5408 38.429 24.502 38.4547 24.4594 38.472C24.4168 38.4894 24.3711 38.498 24.3252 38.4974H22.6707C22.6247 38.498 22.5791 38.4894 22.5364 38.472C22.4938 38.4547 22.455 38.429 22.4223 38.3965C22.3896 38.364 22.3636 38.3253 22.3459 38.2826C22.3282 38.2399 22.3191 38.1941 22.3191 38.1478V36.5162Z" fill="white"/>
<path d="M22.6707 44.333C22.6247 44.3325 22.5791 44.3411 22.5364 44.3585C22.4938 44.3758 22.455 44.4014 22.4223 44.434C22.3896 44.4665 22.3636 44.5052 22.3459 44.5479C22.3282 44.5906 22.3191 44.6364 22.3191 44.6827V46.3143C22.3191 46.3606 22.3282 46.4064 22.3459 46.4491C22.3636 46.4918 22.3896 46.5305 22.4223 46.563C22.455 46.5955 22.4938 46.6212 22.5364 46.6385C22.5791 46.6559 22.6247 46.6645 22.6707 46.6639H24.3252C24.3711 46.6645 24.4168 46.6559 24.4594 46.6385C24.502 46.6212 24.5408 46.5955 24.5735 46.563C24.6062 46.5305 24.6322 46.4918 24.6499 46.4491C24.6676 46.4064 24.6768 46.3606 24.6767 46.3143V44.7035C24.6768 44.6572 24.6676 44.6114 24.6499 44.5687C24.6322 44.526 24.6062 44.4873 24.5735 44.4548C24.5408 44.4223 24.502 44.3966 24.4594 44.3793C24.4168 44.3619 24.3711 44.3533 24.3252 44.3539L22.6707 44.333Z" fill="white"/>
<path fill-rule="evenodd" clip-rule="evenodd" d="M14.9193 17.4985H13.8604C13.7373 17.5002 13.6151 17.4773 13.5008 17.4313C13.3865 17.3853 13.2823 17.317 13.1943 17.2304C13.1063 17.1437 13.0361 17.0405 12.9879 16.9265C12.9397 16.8125 12.9143 16.69 12.9132 16.5661V13.7649C12.9154 13.5161 13.0154 13.2784 13.1914 13.1036C13.3673 12.9289 13.6049 12.8314 13.8521 12.8325H16.673C16.9202 12.8314 17.1578 12.9289 17.3338 13.1036C17.5098 13.2784 17.6098 13.5161 17.612 13.7649V14.8346L21.5993 17.6483C21.7492 17.5535 21.9227 17.503 22.0998 17.5027H24.9083C25.1079 17.5015 25.3025 17.5658 25.4625 17.6858L29.3713 14.0563V13.7691C29.3735 13.5203 29.4735 13.2825 29.6495 13.1078C29.8254 12.9331 30.063 12.8356 30.3102 12.8367H33.1311C33.3783 12.8356 33.6159 12.9331 33.7919 13.1078C33.9678 13.2825 34.0679 13.5203 34.07 13.7691V16.5703C34.0679 16.8191 33.9678 17.0568 33.7919 17.2316C33.6159 17.4063 33.3783 17.5038 33.1311 17.5027H32.3039V21.0032H33.1311C33.3783 21.0021 33.6159 21.0996 33.7919 21.2743C33.9678 21.449 34.0679 21.6868 34.07 21.9355V22.023L36.4194 20.3122V18.435C36.4216 18.1863 36.5216 17.9485 36.6976 17.7738C36.8736 17.599 37.1111 17.5016 37.3584 17.5027H40.1793C40.4265 17.5016 40.6641 17.599 40.84 17.7738C41.016 17.9485 41.116 18.1863 41.1182 18.435V21.2363C41.1177 21.3596 41.0929 21.4816 41.0454 21.5953C40.9979 21.709 40.9285 21.8121 40.8412 21.8988C40.754 21.9854 40.6506 22.0538 40.537 22.1002C40.4234 22.1465 40.3018 22.1697 40.1793 22.1686H39.352V25.6692H40.1793C40.4265 25.668 40.6641 25.7655 40.84 25.9403C41.016 26.115 41.116 26.3528 41.1182 26.6015V29.4028C41.1177 29.5261 41.0929 29.6481 41.0454 29.7618C40.9979 29.8755 40.9285 29.9786 40.8412 30.0653C40.754 30.1519 40.6506 30.2203 40.537 30.2666C40.4234 30.313 40.3018 30.3362 40.1793 30.3351H39.352V33.8357H40.1793C40.4265 33.8346 40.6641 33.932 40.84 34.1068C41.016 34.2815 41.116 34.5193 41.1182 34.768V37.5693C41.1177 37.6926 41.0929 37.8146 41.0454 37.9283C40.9979 38.042 40.9285 38.1451 40.8412 38.2318C40.754 38.3184 40.6506 38.3868 40.537 38.4331C40.4234 38.4795 40.3018 38.5027 40.1793 38.5016H37.3542C37.107 38.5027 36.8694 38.4053 36.6935 38.2305C36.5175 38.0558 36.4175 37.818 36.4153 37.5693V34.768C36.4175 34.5193 36.5175 34.2815 36.6935 34.1068C36.8694 33.932 37.107 33.8346 37.3542 33.8357H38.4131V30.3351H37.3542C37.107 30.3363 36.8694 30.2388 36.6935 30.064C36.5175 29.8893 36.4175 29.6515 36.4153 29.4028V26.5974C36.4175 26.3486 36.5175 26.1108 36.6935 25.9361C36.8694 25.7614 37.107 25.6639 37.3542 25.665H38.4131V22.1645H37.3542C37.1442 22.1652 36.9401 22.095 36.7744 21.9653C36.6087 21.8355 36.491 21.6536 36.4401 21.4486L34.0659 23.1759V24.7243C34.0637 24.9731 33.9637 25.2108 33.7877 25.3856C33.6118 25.5603 33.3742 25.6578 33.127 25.6567H32.2997V29.1572H33.127C33.3742 29.1561 33.6118 29.2536 33.7877 29.4283C33.9637 29.603 34.0637 29.8408 34.0659 30.0896V32.8908C34.0637 33.1396 33.9637 33.3773 33.7877 33.5521C33.6118 33.7268 33.3742 33.8243 33.127 33.8232H32.2997V37.3237H33.127C33.3742 37.3226 33.6118 37.4201 33.7877 37.5948C33.9637 37.7695 34.0637 38.0073 34.0659 38.2561V41.0573C34.0637 41.3061 33.9637 41.5438 33.7877 41.7186C33.6118 41.8933 33.3742 41.9908 33.127 41.9897H30.3061C30.0589 41.9908 29.8213 41.8933 29.6453 41.7186C29.4693 41.5438 29.3693 41.3061 29.3671 41.0573V38.2561C29.3693 38.0073 29.4693 37.7695 29.6453 37.5948C29.8213 37.4201 30.0589 37.3226 30.3061 37.3237H31.365V33.8232H30.3061C30.0589 33.8243 29.8213 33.7268 29.6453 33.5521C29.4693 33.3773 29.3693 33.1396 29.3671 32.8908V30.0896C29.3693 29.8408 29.4693 29.603 29.6453 29.4283C29.8213 29.2536 30.0589 29.1561 30.3061 29.1572H31.365V25.6567H30.6494L25.8431 29.1572V29.3903C25.8431 29.6398 25.7446 29.879 25.5693 30.0555C25.394 30.2319 25.1562 30.331 24.9083 30.331H22.0832C21.836 30.3321 21.5984 30.2346 21.4225 30.0599C21.2465 29.8851 21.1465 29.6474 21.1443 29.3986V28.6244L16.9833 25.6151C16.8861 25.6484 16.784 25.6653 16.6813 25.665H15.8541V29.1655H16.6813C16.9285 29.1644 17.1661 29.2619 17.3421 29.4366C17.518 29.6114 17.618 29.8491 17.6202 30.0979V32.8991C17.618 33.1479 17.518 33.3857 17.3421 33.5604C17.1661 33.7351 16.9285 33.8326 16.6813 33.8315H15.8541V37.332H16.6813C16.9285 37.3309 17.1661 37.4284 17.3421 37.6031C17.518 37.7778 17.618 38.0156 17.6202 38.2644V41.0656C17.618 41.3144 17.518 41.5521 17.3421 41.7269C17.1661 41.9016 16.9285 41.9991 16.6813 41.998H13.8604C13.7373 41.9996 13.6151 41.9768 13.5008 41.9308C13.3865 41.8848 13.2823 41.8165 13.1943 41.7299C13.1063 41.6432 13.0361 41.5399 12.9879 41.426C12.9397 41.312 12.9143 41.1895 12.9132 41.0656V38.2644C12.9154 38.0156 13.0154 37.7778 13.1914 37.6031C13.3673 37.4284 13.6049 37.3309 13.8521 37.332H14.911V33.8315H13.8604C13.7373 33.8331 13.6151 33.8103 13.5008 33.7643C13.3865 33.7183 13.2823 33.65 13.1943 33.5634C13.1063 33.4767 13.0361 33.3734 12.9879 33.2595C12.9397 33.1455 12.9143 33.023 12.9132 32.8991V30.0979C12.9154 29.8491 13.0154 29.6114 13.1914 29.4366C13.3673 29.2619 13.6049 29.1644 13.8521 29.1655H14.911V25.665H13.8604C13.7366 25.6667 13.6137 25.6435 13.4989 25.597C13.384 25.5505 13.2795 25.4814 13.1914 25.3939C13.1032 25.3064 13.0333 25.2022 12.9855 25.0872C12.9378 24.9723 12.9132 24.8489 12.9132 24.7243V22.6848L10.5721 20.9782V21.2238C10.5699 21.4726 10.4699 21.7103 10.2939 21.8851C10.118 22.0598 9.88037 22.1573 9.63316 22.1561H8.80591V25.6567H9.63316C9.88037 25.6556 10.118 25.753 10.2939 25.9278C10.4699 26.1025 10.5699 26.3403 10.5721 26.589V29.3903C10.5699 29.639 10.4699 29.8768 10.2939 30.0515C10.118 30.2263 9.88037 30.3238 9.63316 30.3227H8.80591V33.8232H9.63316C9.88037 33.8221 10.118 33.9195 10.2939 34.0943C10.4699 34.269 10.5699 34.5068 10.5721 34.7555V37.5568C10.5699 37.8055 10.4699 38.0433 10.2939 38.218C10.118 38.3928 9.88037 38.4903 9.63316 38.4891H6.81225C6.56756 38.4892 6.3327 38.3922 6.15852 38.2193C5.98434 38.0463 5.88485 37.8113 5.88159 37.5651V34.7639C5.88378 34.5151 5.9838 34.2773 6.15976 34.1026C6.33573 33.9279 6.57331 33.8304 6.82052 33.8315H7.87939V30.331H6.81225C6.56614 30.331 6.33004 30.2329 6.15563 30.0582C5.98122 29.8834 5.88269 29.6463 5.88159 29.3986V26.5974C5.88378 26.3486 5.9838 26.1108 6.15976 25.9361C6.33573 25.7614 6.57331 25.6639 6.82052 25.665H7.87939V22.1645H6.81225C6.56614 22.1645 6.33004 22.0664 6.15563 21.8916C5.98122 21.7169 5.88269 21.4798 5.88159 21.2321V18.4309C5.88378 18.1821 5.9838 17.9443 6.15976 17.7696C6.33573 17.5949 6.57331 17.4974 6.82052 17.4985H9.64143C9.88864 17.4974 10.1262 17.5949 10.3022 17.7696C10.4782 17.9443 10.5782 18.1821 10.5804 18.4309V19.8336L13.0001 21.5818C13.0713 21.409 13.1918 21.2614 13.3465 21.1577C13.5011 21.054 13.6828 20.9987 13.8687 20.999H14.9275L14.9193 17.4985ZM17.6202 15.9834L21.1443 18.4808V21.2321C21.1465 21.4809 21.2465 21.7186 21.4225 21.8934C21.5984 22.0681 21.836 22.1656 22.0832 22.1645H24.9083C25.1555 22.1656 25.3931 22.0681 25.569 21.8934C25.745 21.7186 25.845 21.4809 25.8472 21.2321V18.6015L29.3713 15.3299V16.5786C29.3735 16.8274 29.4735 17.0652 29.6495 17.2399C29.8254 17.4146 30.063 17.5121 30.3102 17.511H31.3691V21.0115H30.3061C30.0589 21.0104 29.8213 21.1079 29.6453 21.2826C29.4693 21.4573 29.3693 21.6951 29.3671 21.9439V24.7243C29.3677 24.9295 29.4361 25.1286 29.5616 25.2904L25.8389 28.0001V26.5974C25.8368 26.35 25.7379 26.1135 25.5637 25.939C25.3895 25.7645 25.1541 25.6661 24.9083 25.665H22.0832C21.836 25.6639 21.5984 25.7614 21.4225 25.9361C21.2465 26.1108 21.1465 26.3486 21.1443 26.5974V27.4673L17.6037 24.9116C17.6079 24.852 17.6079 24.7922 17.6037 24.7326V21.9314C17.6015 21.6826 17.5015 21.4449 17.3255 21.2701C17.1496 21.0954 16.912 20.9979 16.6648 20.999H15.8375V17.4985H16.6648C16.912 17.4996 17.1496 17.4021 17.3255 17.2274C17.5015 17.0527 17.6015 16.8149 17.6037 16.5661L17.6202 15.9834Z" fill="white"/>
</svg>
